<?xml version="1.0" encoding="utf-8"?>
<svg version="1.1" xmlns:xlink="http://www.w3.org/1999/xlink" width="27px" height="46px" xmlns="http://www.w3.org/2000/svg">
  <g transform="matrix(1 0 0 1 -9 -513 )">
    <path d="M 26.5360824742268 2.76553106212427  C 26.8453608247423 3.07281229124916  27 3.42618570474282  27 3.82565130260519  C 27 4.22511690046761  26.8453608247423 4.57849031396127  26.5360824742268 4.88577154308616  L 8.37931034482759 23  L 26.5360824742268 41.1142284569138  C 26.8453608247423 41.4215096860387  27 41.7748830995324  27 42.1743486973948  C 27 42.5738142952572  26.8453608247423 42.9271877087508  26.5360824742268 43.2344689378757  L 24.2164948453608 45.5390781563126  C 23.9072164948454 45.8463593854375  23.5515463917526 46  23.1494845360825 46  C 22.7474226804124 46  22.3917525773196 45.8463593854375  22.0824742268041 45.5390781563126  L 0.463917525773198 24.060120240481  C 0.154639175257731 23.752839011356  0 23.3994655978624  0 23  C 0 22.6005344021376  0.154639175257731 22.247160988644  0.463917525773198 21.939879759519  L 22.0824742268041 0.460921843687361  C 22.3917525773196 0.153640614562471  22.7474226804124 0  23.1494845360825 0  C 23.5515463917526 0  23.9072164948454 0.153640614562471  24.2164948453608 0.460921843687361  L 26.5360824742268 2.76553106212427  Z " fill-rule="nonzero" fill="#000000" stroke="none" transform="matrix(1 0 0 1 9 513 )" />
  </g>
</svg>