<?xml version="1.0" encoding="utf-8"?>
<svg version="1.1" xmlns:xlink="http://www.w3.org/1999/xlink" width="28px" height="49px" xmlns="http://www.w3.org/2000/svg">
  <g transform="matrix(1 0 0 1 -351 -507 )">
    <path d="M 27.5189003436426 23.3707414829659  C 27.8396334478809 23.6980627922512  28 24.0744822979292  28 24.5  C 28 24.9255177020708  27.8396334478809 25.3019372077488  27.5189003436426 25.6292585170341  L 5.09965635738832 48.5090180360721  C 4.77892325315006 48.8363393453574  4.41008018327606 49  3.99312714776632 49  C 3.57617411225659 49  3.20733104238259 48.8363393453574  2.88659793814433 48.5090180360721  L 0.481099656357388 46.0541082164329  C 0.16036655211913 45.7267869071476  0 45.3503674014696  0 44.9248496993988  C 0 44.499331997328  0.16036655211913 44.12291249165  0.481099656357388 43.7955911823647  L 19.3883161512027 24.5  L 0.481099656357388 5.20440881763527  C 0.16036655211913 4.87708750835003  0 4.50066800267201  0 4.0751503006012  C 0 3.64963259853039  0.16036655211913 3.27321309285237  0.481099656357388 2.94589178356713  L 2.88659793814433 0.490981963927856  C 3.20733104238259 0.163660654642617  3.57617411225659 0  3.99312714776632 0  C 4.41008018327606 0  4.77892325315006 0.163660654642617  5.09965635738832 0.490981963927856  L 27.5189003436426 23.3707414829659  Z " fill-rule="nonzero" fill="#000000" stroke="none" transform="matrix(1 0 0 1 351 507 )" />
  </g>
</svg>