<?xml version="1.0" encoding="utf-8"?>
<svg version="1.1" xmlns:xlink="http://www.w3.org/1999/xlink" width="45px" height="43px" xmlns="http://www.w3.org/2000/svg">
  <g transform="matrix(1 0 0 1 -140 -70 )">
    <path d="M 36.943359375 24.5514322916667  C 37.314453125 24.1968315972222  37.5 23.7769097222222  37.5 23.2916666666667  L 37.5 19.7083333333333  C 37.5 19.2230902777778  37.314453125 18.8031684027778  36.943359375 18.4485677083333  C 36.572265625 18.0939670138889  36.1328125 17.9166666666667  35.625 18  L 20.91796875 18  L 26.455078125 12.6256510416667  C 26.826171875 12.2710503472222  27.01171875 11.8511284722222  27.01171875 11.3658854166667  C 27.01171875 10.8806423611111  26.826171875 10.4607204861111  26.455078125 10.1061197916667  L 23.7890625 7.55859375  C 23.4375 7.22265625  22.998046875 7.0546875  22.470703125 7.0546875  C 21.943359375 7.0546875  21.50390625 7.22265625  21.15234375 7.55859375  L 10.546875 17.6927083333333  L 7.880859375 20.240234375  C 7.529296875 20.576171875  7.353515625 20.99609375  7.353515625 21.5  C 7.353515625 22.00390625  7.529296875 22.423828125  7.880859375 22.759765625  L 10.546875 25.3072916666667  L 21.15234375 35.44140625  C 21.50390625 35.77734375  21.943359375 35.9453125  22.470703125 35.9453125  C 22.998046875 35.9453125  23.4375 35.77734375  23.7890625 35.44140625  L 26.455078125 32.8938802083333  C 26.806640625 32.5579427083333  26.982421875 32.1380208333333  26.982421875 31.6341145833333  C 26.982421875 31.1302083333333  26.806640625 30.7102864583333  26.455078125 30.3743489583333  L 20.91796875 25  L 35.625 25  C 36.1328125 25.0833333333333  36.572265625 24.9060329861111  36.943359375 24.5514322916667  Z M 41.982421875 10.7080078125  C 43.994140625 14.0020616319444  45 17.5993923611111  45 21.5  C 45 25.4006076388889  43.994140625 28.9979383680556  41.982421875 32.2919921875  C 39.970703125 35.5860460069444  37.2412109375 38.1942274305556  33.7939453125 40.1165364583333  C 30.3466796875 42.0388454861111  26.58203125 43  22.5 43  C 18.41796875 43  14.6533203125 42.0388454861111  11.2060546875 40.1165364583333  C 7.7587890625 38.1942274305556  5.029296875 35.5860460069444  3.017578125 32.2919921875  C 1.005859375 28.9979383680556  0 25.4006076388889  0 21.5  C 0 17.5993923611111  1.005859375 14.0020616319444  3.017578125 10.7080078125  C 5.029296875 7.41395399305556  7.7587890625 4.80577256944444  11.2060546875 2.88346354166667  C 14.6533203125 0.961154513888885  18.41796875 0  22.5 0  C 26.58203125 0  30.3466796875 0.961154513888885  33.7939453125 2.88346354166667  C 37.2412109375 4.80577256944444  39.970703125 7.41395399305556  41.982421875 10.7080078125  Z " fill-rule="nonzero" fill="#000000" stroke="none" transform="matrix(1 0 0 1 140 70 )" />
  </g>
</svg>